:SAMPLES-PER-SECOND 30
:FULLY-SPECIFIED
:DEGREES
1210
root  11.7349 40.0557 -2.85361 6.14697 60.3833 5.93874
RightUpLeg  0.972445 -14.9021 -13.3797
RightLeg  14.6066 -4.17393 1.25742
RightFoot  -11.5586 -0.0630194 8.32683
RightToes  0.00048216 0.542163 -0.142577
Spine  8.686 -0.54061 -0.046221
Spine1  4.49031 -0.451922 0.343332
HEad  -3.77955 6.20872 -7.20571
LeftShoulder1  8.21195 -12.2904 -45.3178
LeftArm  -11.3036 19.5377 -26.072
LeftForeArm  26.6025 -15.8013 -3.92409
LeftHand  -0.25398 0.0180481 5.50724
RightShoulder  4.09766 7.38785 31.6786
RightArm  8.88991 -17.787 31.151
RightForeArm  -6.31048 25.2302 5.72472
RightHand  -2.05424 5.55261 -21.9287
LeftUpLeg  -15.2416 9.67711 -0.234828
LeftLeg  24.523 3.74641 2.19631
LeftFoot  -5.90696 0.313996 -5.84819
LeftToes  1.06245e-005 4.65856e-005 -8.18504e-006
1211
root  11.0214 40.1763 -2.688 7.62036 64.3716 6.57982
RightUpLeg  0.862245 -14.6354 -12.4002
RightLeg  13.5452 -8.37051 1.79282
RightFoot  -11.2304 -0.083771 7.84799
RightToes  0.00048216 0.542163 -0.142577
Spine  7.59592 -0.651614 0.524428
Spine1  4.61344 -0.438325 0.0715391
HEad  -3.92756 7.06427 -7.06117
LeftShoulder1  8.13605 -12.1701 -45.2401
LeftArm  -11.1538 19.8941 -25.9153
LeftForeArm  29.5762 -14.5152 -4.05151
LeftHand  -0.25398 0.0180481 5.50724
RightShoulder  4.10837 7.39325 31.7566
RightArm  6.11021 -19.6197 30.1271
RightForeArm  -7.04127 26.22 5.99164
RightHand  -2.13456 6.00738 -21.8782
LeftUpLeg  -13.617 12.879 -1.34669
LeftLeg  24.6968 6.27037 3.46973
LeftFoot  -6.7759 0.243258 -5.09355
LeftToes  1.06245e-005 4.65856e-005 -8.18504e-006
1212
root  10.3787 40.267 -2.55888 8.77649 68.3019 7.18646
RightUpLeg  0.837202 -14.0672 -11.3384
RightLeg  12.6321 -13.1538 2.12863
RightFoot  -10.7712 -0.10636 6.70173
RightToes  0.00048216 0.542163 -0.142577
Spine  6.65431 -0.785081 0.863676
Spine1  5.09016 -0.527303 0.0801835
HEad  -4.35542 7.53232 -6.99102
LeftShoulder1  8.13936 -12.1219 -45.404
LeftArm  -11.3716 20.6277 -25.5706
LeftForeArm  29.6802 -14.4473 -3.98773
LeftHand  -0.25398 0.0180481 5.50724
RightShoulder  4.13836 7.43494 31.8882
RightArm  3.86866 -20.875 29.473
RightForeArm  -7.49539 26.2231 6.01543
RightHand  -2.06151 5.85245 -21.4361
LeftUpLeg  -11.3241 15.6167 -1.59082
LeftLeg  24.6451 8.18967 4.41079
LeftFoot  -7.62821 0.211655 -5.12545
LeftToes  1.06245e-005 4.65856e-005 -8.18504e-006
1213
root  9.78307 40.3309 -2.45196 9.56372 72.125 7.48682
RightUpLeg  0.620706 -13.2378 -10.0189
RightLeg  11.9419 -17.9811 2.13718
RightFoot  -10.1938 -0.127045 5.74075
RightToes  0.00048216 0.542163 -0.142577
Spine  5.93672 -0.806428 0.740503
Spine1  5.35484 -0.67249 0.729563
HEad  -4.65675 7.55947 -6.78158
LeftShoulder1  8.14284 -12.0809 -45.548
LeftArm  -11.9631 21.7383 -25.2912
LeftForeArm  27.966 -15.1912 -3.7908
LeftHand  -0.25398 0.0180481 5.50724
RightShoulder  4.03873 7.1972 31.7959
RightArm  2.28077 -21.6631 29.3542
RightForeArm  -7.39223 25.4028 5.82019
RightHand  -1.91341 5.38605 -20.7715
LeftUpLeg  -8.78043 17.6419 -1.00781
LeftLeg  24.0715 8.87851 4.63989
LeftFoot  -8.5372 0.177192 -5.12949
LeftToes  1.06245e-005 4.65856e-005 -8.18504e-006
1214
root  9.227 40.3837 -2.36919 10.495 75.6557 7.89668
RightUpLeg  0.0509219 -12.8874 -8.83972
RightLeg  11.6959 -21.7857 2.0234
RightFoot  -9.68777 -0.142014 5.26887
RightToes  0.00048216 0.542163 -0.142577
Spine  5.39268 -0.691211 0.209115
Spine1  5.29987 -0.749296 1.55469
HEad  -4.7601 7.2278 -6.23072
LeftShoulder1  8.00378 -11.9112 -45.2501
LeftArm  -12.9542 22.9409 -25.265
LeftForeArm  26.5403 -16.3901 -3.52643
LeftHand  -0.25398 0.0180481 5.50724
RightShoulder  3.88913 6.82504 31.7071
RightArm  0.780104 -22.318 29.4209
RightForeArm  -6.12343 24.3511 5.51738
RightHand  -1.66561 4.64601 -19.4317
LeftUpLeg  -6.22253 19.0175 -0.12921
LeftLeg  22.5513 8.10136 4.00827
LeftFoot  -9.16555 0.145948 -4.80033
LeftToes  1.06245e-005 4.65856e-005 -8.18504e-006
1215
root  8.71316 40.4297 -2.33254 12.2469 78.9033 9.16486
RightUpLeg  -0.752719 -13.194 -8.04246
RightLeg  11.9002 -24.6501 1.83254
RightFoot  -9.29897 -0.147219 4.71506
RightToes  0.00048216 0.542163 -0.142577
Spine  5.00181 -0.581405 -0.446818
Spine1  5.15624 -0.785923 2.09537
HEad  -4.84538 6.70996 -5.46748
LeftShoulder1  7.71495 -11.6023 -44.4761
LeftArm  -14.0139 23.8894 -25.1946
LeftForeArm  26.6133 -17.7089 -3.29447
LeftHand  -0.25398 0.0180481 5.50724
RightShoulder  3.80725 6.59144 31.7666
RightArm  -1.17661 -22.9818 29.3778
RightForeArm  -3.47335 23.468 5.20185
RightHand  -1.3562 3.73004 -17.455
LeftUpLeg  -3.60296 20.095 0.683014
LeftLeg  20.119 6.14107 2.84539
LeftFoot  -9.28164 0.14887 -5.1805
LeftToes  1.06245e-005 4.65856e-005 -8.18504e-006
1216
root  8.23739 40.4536 -2.37442 14.1925 82.0026 10.7258
RightUpLeg  -1.60967 -13.8007 -7.34236
RightLeg  12.3772 -27.176 1.41624
RightFoot  -8.87909 -0.14652 4.01044
RightToes  0.00048216 0.542163 -0.142577
Spine  4.8637 -0.586612 -0.620663
Spine1  4.9666 -0.841179 2.22829
HEad  -5.05132 6.07513 -4.88767
LeftShoulder1  7.44161 -11.3445 -43.6038
LeftArm  -14.5658 24.4488 -24.483
LeftForeArm  27.8047 -18.6512 -3.1585
LeftHand  -0.25398 0.0180481 5.50724
RightShoulder  3.73197 6.44106 31.5774
RightArm  -3.79382 -23.6328 29.3671
RightForeArm  -0.230754 22.7234 4.94484
RightHand  -1.14346 3.10495 -15.8423
LeftUpLeg  -0.903149 20.5541 1.56344
LeftLeg  16.9642 4.17188 1.61395
LeftFoot  -9.54 0.154952 -6.27017
LeftToes  1.06245e-005 4.65856e-005 -8.18504e-006
1217
root  7.79006 40.4605 -2.50932 13.9279 84.9437 10.2217
RightUpLeg  -2.23884 -14.3975 -6.56179
RightLeg  12.6709 -29.4956 1.04447
RightFoot  -8.29447 -0.152344 3.60192
RightToes  0.00048216 0.542163 -0.142577
Spine  5.06424 -0.656326 0.0204766
Spine1  4.64971 -0.87867 1.98156
HEad  -5.40957 5.34793 -4.75696
LeftShoulder1  7.28588 -11.2869 -42.8132
LeftArm  -14.3687 24.6093 -22.9451
LeftForeArm  28.8111 -18.6762 -3.1009
LeftHand  -0.25398 0.0180481 5.50724
RightShoulder  3.55677 6.17333 30.7953
RightArm  -6.9928 -24.1787 29.3727
RightForeArm  2.18173 21.9319 4.76426
RightHand  -1.10812 3.09246 -15.3754
LeftUpLeg  1.64082 17.4514 2.47211
LeftLeg  13.0191 5.69253 0.181614
LeftFoot  -10.4642 0.113006 -6.2963
LeftToes  1.06245e-005 4.65856e-005 -8.18504e-006
1218
root  7.35704 40.479 -2.71316 8.24292 87.4832 4.47421
RightUpLeg  -2.51449 -15.3086 -5.95979
RightLeg  12.4916 -30.9162 1.0533
RightFoot  -7.57676 -0.164401 3.4337
RightToes  0.00048216 0.542163 -0.142577
Spine  5.55673 -0.654115 0.769607
Spine1  4.3402 -0.87904 1.73826
HEad  -5.97414 4.69037 -5.01888
LeftShoulder1  7.12523 -11.2807 -41.8221
LeftArm  -13.9419 24.3143 -21.0825
LeftForeArm  28.8018 -17.6854 -3.09292
LeftHand  -0.25398 0.0180481 5.50724
RightShoulder  3.33164 5.82633 29.7358
RightArm  -10.4059 -24.3354 28.7317
RightForeArm  3.08838 20.9279 4.66373
RightHand  -1.17323 3.43241 -15.6566
LeftUpLeg  3.5027 9.78826 2.6686
LeftLeg  8.49212 11.9166 -1.53269
LeftFoot  -11.1846 0.071953 -4.31661
LeftToes  1.06245e-005 4.65856e-005 -8.18504e-006
1219
root  6.92194 40.5267 -2.93749 -0.284668 89.4112 -4.08871
RightUpLeg  -2.87628 -16.7927 -5.75316
RightLeg  12.2334 -31.2234 1.05151
RightFoot  -6.78488 -0.168372 3.07652
RightToes  0.00048216 0.542163 -0.142577
Spine  6.16924 -0.493456 0.441245
Spine1  4.2026 -0.911625 2.19803
HEad  -6.7529 4.2976 -5.43828
LeftShoulder1  6.81818 -11.1017 -40.4024
LeftArm  -13.9493 23.6644 -19.3617
LeftForeArm  28.0131 -16.2061 -3.09026
LeftHand  -0.25398 0.0180481 5.50724
RightShoulder  3.16384 5.56958 28.8796
RightArm  -13.3143 -23.7696 26.8899
RightForeArm  3.0371 19.5415 4.60528
RightHand  -1.2258 3.69309 -15.8934
LeftUpLeg  4.1706 4.89358 1.97585
LeftLeg  4.80171 15.6125 -2.40114
LeftFoot  -10.5892 0.0728336 -1.7323
LeftToes  1.06245e-005 4.65856e-005 -8.18504e-006
1220
root  6.49181 40.5998 -3.15347 178.616 89.2321 174.513
RightUpLeg  -3.86453 -18.1697 -5.77363
RightLeg  12.3201 -31.4843 0.562372
RightFoot  -5.85443 -0.158616 2.48283
RightToes  0.00048216 0.542163 -0.142577
Spine  6.65579 -0.202289 -1.04561
Spine1  4.07994 -0.980485 3.39315
HEad  -7.56536 4.17173 -5.78426
LeftShoulder1  6.43787 -10.8239 -38.7444
LeftArm  -14.2698 23.0727 -17.5366
LeftForeArm  27.0728 -14.8662 -3.02262
LeftHand  -0.25398 0.0180481 5.50724
RightShoulder  3.04348 5.39919 28.1757
RightArm  -15.2713 -22.5872 24.2593
RightForeArm  3.01646 17.7877 4.53636
RightHand  -1.23935 3.82016 -15.8534
LeftUpLeg  3.55883 3.97743 1.27193
LeftLeg  3.19581 15.5219 -2.76839
LeftFoot  -9.06737 0.0572841 -0.094573
LeftToes  1.06245e-005 4.65856e-005 -8.18504e-006
1221
root  6.10172 40.6749 -3.38416 174.109 88.4565 169.402
RightUpLeg  -5.25112 -18.4075 -5.75625
RightLeg  12.3848 -31.9687 0.0907251
RightFoot  -4.82416 -0.146005 1.98488
RightToes  0.00048216 0.542163 -0.142577
Spine  6.87822 0.0968235 -2.25026
Spine1  3.73706 -0.920209 4.27881
HEad  -8.24489 4.19059 -5.95702
LeftShoulder1  6.12806 -10.6806 -37.083
LeftArm  -14.387 22.8944 -15.1508
LeftForeArm  26.3377 -13.8813 -2.89922
LeftHand  -0.25398 0.0180481 5.50724
RightShoulder  2.89292 5.18719 27.2474
RightArm  -16.4707 -21.3698 21.7229
RightForeArm  3.37206 16.1272 4.42659
RightHand  -1.2378 3.94084 -15.6405
LeftUpLeg  2.29537 4.22794 1.06063
LeftLeg  2.92958 14.5585 -3.45729
LeftFoot  -7.82488 0.0304756 0.557293
LeftToes  1.06245e-005 4.65856e-005 -8.18504e-006
1222
root  5.77686 40.7289 -3.66377 -175.521 88.3415 179.216
RightUpLeg  -6.1572 -17.1661 -5.69411
RightLeg  11.66 -30.384 0.506123
RightFoot  -4.0366 -0.150264 1.9176
RightToes  0.00048216 0.542163 -0.142577
Spine  6.97316 0.325533 -1.98199
Spine1  3.27472 -0.592441 3.94824
HEad  -8.9118 4.33481 -6.06724
LeftShoulder1  5.84269 -10.605 -35.3372
LeftArm  -14.301 23.072 -12.4256
LeftForeArm  25.7184 -13.294 -2.75019
LeftHand  -0.25398 0.0180481 5.50724
RightShoulder  2.69771 4.91402 25.9624
RightArm  -17.3244 -20.4873 19.6021
RightForeArm  3.69507 15.0693 4.2877
RightHand  -1.20685 3.94776 -15.2497
LeftUpLeg  1.30669 4.66389 1.21632
LeftLeg  2.7213 13.9486 -4.19035
LeftFoot  -7.27092 0.00828122 1.00127
LeftToes  1.06245e-005 4.65856e-005 -8.18504e-006
1223
root  5.51617 40.7514 -3.97454 -153.223 88.6003 -158.66
RightUpLeg  -6.16856 -14.7532 -5.67877
RightLeg  10.2419 -24.4791 1.47081
RightFoot  -3.93384 -0.183864 2.43029
RightToes  0.00048216 0.542163 -0.142577
Spine  7.14095 0.512146 -0.845528
Spine1  2.96328 -0.139022 2.92632
HEad  -9.73731 4.68802 -6.30628
LeftShoulder1  5.42264 -10.2588 -33.3486
LeftArm  -14.5193 23.3835 -10.0911
LeftForeArm  24.9006 -13.3135 -2.55353
LeftHand  -0.25398 0.0180481 5.50724
RightShoulder  2.49627 4.64623 24.48
RightArm  -18.0426 -19.6761 17.6329
RightForeArm  3.52428 14.5655 4.16865
RightHand  -1.14923 3.75697 -14.8324
LeftUpLeg  0.813501 4.94109 1.35296
LeftLeg  2.55049 14.0263 -4.51146
LeftFoot  -7.09757 -0.0148267 1.55427
LeftToes  1.06245e-005 4.65856e-005 -8.18504e-006
1224
root  5.31437 40.7462 -4.25896 -128.809 88.8007 -134.141
RightUpLeg  -5.74077 -11.9358 -5.71204
RightLeg  9.24976 -15.4992 1.66935
RightFoot  -4.66596 -0.223012 3.28593
RightToes  0.00048216 0.542163 -0.142577
Spine  7.2946 0.672486 -0.301555
Spine1  2.83465 0.145043 2.41429
HEad  -10.5261 5.2463 -6.67076
LeftShoulder1  4.86157 -9.54192 -31.2112
LeftArm  -15.4185 23.7719 -8.46467
LeftForeArm  23.811 -13.9838 -2.30238
LeftHand  -0.25398 0.0180481 5.50724
RightShoulder  2.29922 4.36793 22.982
RightArm  -18.6907 -18.5567 15.6882
RightForeArm  2.69825 14.244 4.10146
RightHand  -1.12911 3.58885 -14.8377
LeftUpLeg  0.516317 5.06989 1.26663
LeftLeg  2.80001 14.4257 -4.55266
LeftFoot  -7.04002 -0.0345811 2.05016
LeftToes  1.06245e-005 4.65856e-005 -8.18504e-006
